{
  "accessors": [
    {
      "bufferView": 1,
      "componentType": 5126,
      "count": 65532,
      "max": [
        0.9974468946456909,
        0.7477453351020813,
        0.9994180202484131
      ],
      "min": [
        -0.7477492094039917,
        -0.09120147675275803,
        -0.9994180202484131
      ],
      "type": "VEC3"
    },
    {
      "bufferView": 1,
      "byteOffset": 786384,
      "componentType": 5126,
      "count": 65532,
      "max": [
        0.9999925494194031,
        0.5663208961486816,
        0.9988044500350952
      ],
      "min": [
        -0.996718168258667,
        -0.9999979734420776,
        -0.9988042712211609
      ],
      "type": "VEC3"
    },
    {
      "bufferView": 0,
      "componentType": 5125,
      "count": 131919,
      "type": "SCALAR"
    },
    {
      "bufferView": 1,
      "byteOffset": 1572768,
      "componentType": 5126,
      "count": 52407,
      "max": [
        0.9974468946456909,
        0.9969925880432129,
        0.9994180202484131
      ],
      "min": [
        -0.9969928860664368,
        -0.10121069848537445,
        -0.9994180202484131
      ],
      "type": "VEC3"
    },
    {
      "bufferView": 1,
      "byteOffset": 2201652,
      "componentType": 5126,
      "count": 52407,
      "max": [
        0.9999075531959534,
        0.9998496174812317,
        0.9993396401405334
      ],
      "min": [
        -0.9998495578765869,
        -0.9999918341636658,
        -0.9993438720703125
      ],
      "type": "VEC3"
    },
    {
      "bufferView": 0,
      "byteOffset": 527676,
      "componentType": 5125,
      "count": 77667,
      "type": "SCALAR"
    },
    {
      "bufferView": 1,
      "byteOffset": 2830536,
      "componentType": 5126,
      "count": 53602,
      "max": [
        0.010276010259985924,
        0.0009874169481918216,
        0.9994180202484131
      ],
      "min": [
        -0.996392011642456,
        -0.9977427124977112,
        -0.9954134225845337
      ],
      "type": "VEC3"
    },
    {
      "bufferView": 1,
      "byteOffset": 3473760,
      "componentType": 5126,
      "count": 53602,
      "max": [
        0.9999992847442627,
        0.9967182874679565,
        0.9993345737457275
      ],
      "min": [
        -0.9992470145225525,
        -0.9987204074859619,
        -0.9986739754676819
      ],
      "type": "VEC3"
    },
    {
      "bufferView": 0,
      "byteOffset": 838344,
      "componentType": 5125,
      "count": 95790,
      "type": "SCALAR"
    },
    {
      "bufferView": 1,
      "byteOffset": 4116984,
      "componentType": 5126,
      "count": 6,
      "max": [
        1.0,
        1.1523972749710083,
        0.03424789384007454
      ],
      "min": [
        -0.8982023596763611,
        -1.1178114414215088,
        -0.0004932612646371126
      ],
      "type": "VEC3"
    },
    {
      "bufferView": 1,
      "byteOffset": 4117056,
      "componentType": 5126,
      "count": 6,
      "max": [
        0.017313335090875626,
        0.007963698357343674,
        0.9998635649681091
      ],
      "min": [
        0.015529557131230831,
        0.005635022185742855,
        0.9998184442520142
      ],
      "type": "VEC3"
    },
    {
      "bufferView": 0,
      "byteOffset": 1221504,
      "componentType": 5125,
      "count": 12,
      "type": "SCALAR"
    },
    {
      "bufferView": 1,
      "byteOffset": 4117128,
      "componentType": 5126,
      "count": 4534,
      "max": [
        0.998344898223877,
        0.0012239809148013592,
        0.9992635250091553
      ],
      "min": [
        -0.0012246959377080202,
        -0.9982293844223022,
        -0.9992635250091553
      ],
      "type": "VEC3"
    },
    {
      "bufferView": 1,
      "byteOffset": 4171536,
      "componentType": 5126,
      "count": 4534,
      "max": [
        0.9987955689430237,
        0.9999500513076782,
        0.9988589882850647
      ],
      "min": [
        -0.999962329864502,
        -0.9987955689430237,
        -0.9988591074943542
      ],
      "type": "VEC3"
    },
    {
      "bufferView": 0,
      "byteOffset": 1221552,
      "componentType": 5125,
      "count": 27192,
      "type": "SCALAR"
    },
    {
      "bufferView": 1,
      "byteOffset": 4225944,
      "componentType": 5126,
      "count": 63,
      "max": [
        1.0,
        1.4694318771362305,
        0.12190019339323044
      ],
      "min": [
        -0.906654953956604,
        -1.42625093460083,
        -0.07611685991287231
      ],
      "type": "VEC3"
    },
    {
      "bufferView": 1,
      "byteOffset": 4226700,
      "componentType": 5126,
      "count": 63,
      "max": [
        0.10835345089435577,
        0.13681133091449738,
        0.9999980926513672
      ],
      "min": [
        -0.14570163190364838,
        -0.03881954029202461,
        0.9866679906845093
      ],
      "type": "VEC3"
    },
    {
      "bufferView": 0,
      "byteOffset": 1330320,
      "componentType": 5125,
      "count": 288,
      "type": "SCALAR"
    }
  ],
  "asset": {
    "extras": {
      "author": "phamducphuc94 (https://sketchfab.com/ducphuc194)",
      "license": "CC-BY-4.0 (http://creativecommons.org/licenses/by/4.0/)",
      "source": "https://sketchfab.com/3d-models/pacman-3d-cce02e2817e94135b83f3a624f9fa7e9",
      "title": "pacman 3d"
    },
    "generator": "Sketchfab-12.67.0",
    "version": "2.0"
  },
  "bufferViews": [
    {
      "buffer": 0,
      "byteLength": 1331472,
      "name": "floatBufferViews",
      "target": 34963
    },
    {
      "buffer": 0,
      "byteLength": 4227456,
      "byteOffset": 1331472,
      "byteStride": 12,
      "name": "floatBufferViews",
      "target": 34962
    }
  ],
  "buffers": [
    {
      "byteLength": 5558928,
      "uri": "scene.bin"
    }
  ],
  "materials": [
    {
      "doubleSided": true,
      "name": "Scene_-_Root",
      "pbrMetallicRoughness": {
        "metallicFactor": 0.0,
        "roughnessFactor": 0.6
      }
    }
  ],
  "meshes": [
    {
      "name": "Pacman__0",
      "primitives": [
        {
          "attributes": {
            "NORMAL": 1,
            "POSITION": 0
          },
          "indices": 2,
          "material": 0,
          "mode": 4
        }
      ]
    },
    {
      "name": "Pacman__0",
      "primitives": [
        {
          "attributes": {
            "NORMAL": 4,
            "POSITION": 3
          },
          "indices": 5,
          "material": 0,
          "mode": 4
        }
      ]
    },
    {
      "name": "Pacman.001__0",
      "primitives": [
        {
          "attributes": {
            "NORMAL": 7,
            "POSITION": 6
          },
          "indices": 8,
          "material": 0,
          "mode": 4
        }
      ]
    },
    {
      "name": "Plane.001__0",
      "primitives": [
        {
          "attributes": {
            "NORMAL": 10,
            "POSITION": 9
          },
          "indices": 11,
          "material": 0,
          "mode": 4
        }
      ]
    },
    {
      "name": "Jaw__0",
      "primitives": [
        {
          "attributes": {
            "NORMAL": 13,
            "POSITION": 12
          },
          "indices": 14,
          "material": 0,
          "mode": 4
        }
      ]
    },
    {
      "name": "Plane.002__0",
      "primitives": [
        {
          "attributes": {
            "NORMAL": 16,
            "POSITION": 15
          },
          "indices": 17,
          "material": 0,
          "mode": 4
        }
      ]
    }
  ],
  "nodes": [
    {
      "children": [
        1
      ],
      "matrix": [
        1.0,
        0.0,
        0.0,
        0.0,
        0.0,
        2.220446049250313e-16,
        -1.0,
        0.0,
        0.0,
        1.0,
        2.220446049250313e-16,
        0.0,
        0.0,
        0.0,
        0.0,
        1.0
      ],
      "name": "Sketchfab_model"
    },
    {
      "children": [
        2
      ],
      "matrix": [
        1.0,
        0.0,
        0.0,
        0.0,
        0.0,
        0.0,
        1.0,
        0.0,
        0.0,
        -1.0,
        0.0,
        0.0,
        0.0,
        0.0,
        0.0,
        1.0
      ],
      "name": "8341e59841e64438a273e4c64c91b9e8.fbx"
    },
    {
      "children": [
        3
      ],
      "name": "RootNode"
    },
    {
      "children": [
        4,
        5,
        6,
        10
      ],
      "matrix": [
        0.9807707706218938,
        -98.86639169735766,
        -0.7366587177015583,
        0.0,
        -98.8688561465586,
        -0.9790859391540195,
        -0.2294010286266794,
        0.0,
        0.22208880099462908,
        0.7388961950961253,
        -98.87099778145836,
        0.0,
        -124.35505676269531,
        120.63755798339844,
        -340.8882751464844,
        1.0
      ],
      "name": "Pacman"
    },
    {
      "mesh": 0,
      "name": "Pacman__0"
    },
    {
      "mesh": 1,
      "name": "Pacman__0"
    },
    {
      "children": [
        7,
        8
      ],
      "matrix": [
        1.0000002384185724,
        -1.1548398415549862e-07,
        -6.286683783794655e-09,
        0.0,
        1.1548401199387198e-07,
        1.0000002384087674,
        4.4283303039659334e-06,
        0.0,
        6.28617088388831e-09,
        -4.428329248895948e-06,
        0.999999999990195,
        0.0,
        -4.069879651069641e-07,
        3.5762786865234375e-07,
        -2.384185791015625e-07,
        1.0
      ],
      "name": "Pacman.001"
    },
    {
      "mesh": 2,
      "name": "Pacman.001__0"
    },
    {
      "children": [
        9
      ],
      "matrix": [
        0.04110329428174808,
        0.7156523667886634,
        -0.030034206698628954,
        0.0,
        -0.0009533093292140528,
        -0.030028940651687933,
        -0.7168315387674246,
        0.0,
        -0.7162816273065346,
        0.04110714372077913,
        -0.0007694499916174053,
        0.0,
        -0.02333824150264263,
        -0.10896730422973633,
        0.010155439376831055,
        1.0
      ],
      "name": "Plane.001"
    },
    {
      "mesh": 3,
      "name": "Plane.001__0"
    },
    {
      "children": [
        11,
        12
      ],
      "matrix": [
        0.702919755179534,
        0.6971156511428674,
        -0.00585778934977005,
        0.0,
        -0.6971289864435685,
        0.7028364365334049,
        -0.011515671616865415,
        0.0,
        -0.003950186360976207,
        0.01230123196285723,
        0.9899156411459851,
        0.0,
        -0.018465697765350342,
        -0.011511683464050293,
        -0.00018310546875,
        1.0
      ],
      "name": "Jaw"
    },
    {
      "mesh": 4,
      "name": "Jaw__0"
    },
    {
      "children": [
        13
      ],
      "matrix": [
        0.003944653061908417,
        0.6611520316565749,
        -0.009814776658341816,
        0.0,
        -0.01845330405043941,
        -0.009701059424152057,
        -0.6609082667521649,
        0.0,
        -0.66096757090489,
        0.004216596886259547,
        0.018393067098653047,
        0.0,
        0.04379737377166748,
        -0.38101792335510254,
        0.020244598388671875,
        1.0
      ],
      "name": "Plane.002"
    },
    {
      "mesh": 5,
      "name": "Plane.002__0"
    }
  ],
  "scene": 0,
  "scenes": [
    {
      "name": "Sketchfab_Scene",
      "nodes": [
        0
      ]
    }
  ]
}
