{
	"asset":{
		"generator":"Khronos glTF Blender I/O v4.0.44",
		"version":"2.0"
	},
	"extensionsUsed":[
		"KHR_materials_emissive_strength",
		"KHR_materials_transmission",
		"KHR_materials_ior"
	],
	"scene":0,
	"scenes":[
		{
			"name":"Scene",
			"nodes":[
				1
			]
		}
	],
	"nodes":[
		{
			"mesh":0,
			"name":"Sphere",
			"rotation":[
				-0.9494975209236145,
				-0.1376645267009735,
				-0.10879798978567123,
				0.26012688875198364
			],
			"scale":[
				0.8571311235427856,
				0.8571310639381409,
				0.8571309447288513
			],
			"translation":[
				0.06418412923812866,
				-0.20816777646541595,
				-0.05171961337327957
			]
		},
		{
			"children":[
				0
			],
			"mesh":1,
			"name":"water ship",
			"rotation":[
				0.6970966458320618,
				-0.23191286623477936,
				-0.12148862332105637,
				0.6674677729606628
			],
			"translation":[
				-0.17122887074947357,
				7.277764797210693,
				0.45761895179748535
			]
		}
	],
	"animations":[
		{
			"channels":[
				{
					"sampler":0,
					"target":{
						"node":1,
						"path":"translation"
					}
				},
				{
					"sampler":1,
					"target":{
						"node":1,
						"path":"rotation"
					}
				},
				{
					"sampler":2,
					"target":{
						"node":1,
						"path":"scale"
					}
				}
			],
			"name":"Action",
			"samplers":[
				{
					"input":8,
					"interpolation":"LINEAR",
					"output":9
				},
				{
					"input":8,
					"interpolation":"LINEAR",
					"output":10
				},
				{
					"input":11,
					"interpolation":"STEP",
					"output":12
				}
			]
		},
		{
			"channels":[
				{
					"sampler":0,
					"target":{
						"node":0,
						"path":"translation"
					}
				},
				{
					"sampler":1,
					"target":{
						"node":0,
						"path":"rotation"
					}
				},
				{
					"sampler":2,
					"target":{
						"node":0,
						"path":"scale"
					}
				}
			],
			"name":"Action.001",
			"samplers":[
				{
					"input":11,
					"interpolation":"LINEAR",
					"output":13
				},
				{
					"input":8,
					"interpolation":"LINEAR",
					"output":14
				},
				{
					"input":8,
					"interpolation":"LINEAR",
					"output":15
				}
			]
		}
	],
	"materials":[
		{
			"doubleSided":true,
			"emissiveFactor":[
				1,
				1,
				1
			],
			"emissiveTexture":{
				"index":0
			},
			"extensions":{
				"KHR_materials_emissive_strength":{
					"emissiveStrength":100
				}
			},
			"name":"Ball.001",
			"normalTexture":{
				"index":1
			},
			"pbrMetallicRoughness":{
				"baseColorTexture":{
					"index":2
				},
				"metallicFactor":0,
				"metallicRoughnessTexture":{
					"index":3
				}
			}
		},
		{
			"alphaMode":"BLEND",
			"doubleSided":true,
			"emissiveFactor":[
				1,
				1,
				1
			],
			"emissiveTexture":{
				"index":4
			},
			"extensions":{
				"KHR_materials_transmission":{
					"transmissionFactor":0.8195121884346008
				},
				"KHR_materials_emissive_strength":{
					"emissiveStrength":3
				},
				"KHR_materials_ior":{
					"ior":1.4500000476837158
				}
			},
			"name":"glass dome.001",
			"normalTexture":{
				"index":5
			},
			"pbrMetallicRoughness":{
				"baseColorFactor":[
					0.47315919399261475,
					0.9140923023223877,
					1,
					1
				],
				"metallicFactor":0,
				"roughnessFactor":0
			}
		}
	],
	"meshes":[
		{
			"name":"Sphere",
			"primitives":[
				{
					"attributes":{
						"POSITION":0,
						"NORMAL":1,
						"TEXCOORD_0":2
					},
					"indices":3,
					"material":0
				}
			]
		},
		{
			"name":"lava energy core",
			"primitives":[
				{
					"attributes":{
						"POSITION":4,
						"NORMAL":5,
						"TEXCOORD_0":6
					},
					"indices":7,
					"material":1
				}
			]
		}
	],
	"textures":[
		{
			"sampler":0,
			"source":0
		},
		{
			"sampler":0,
			"source":1
		},
		{
			"sampler":0,
			"source":2
		},
		{
			"sampler":0,
			"source":3
		},
		{
			"sampler":0,
			"source":4
		},
		{
			"sampler":0,
			"source":5
		}
	],
	"images":[
		{
			"mimeType":"image/png",
			"name":"lava emit",
			"uri":"lava%20emit.png"
		},
		{
			"mimeType":"image/png",
			"name":"lava  normal",
			"uri":"lava%20%20normal.png"
		},
		{
			"mimeType":"image/png",
			"name":"lava color",
			"uri":"lava%20color.png"
		},
		{
			"mimeType":"image/png",
			"name":"lava rough",
			"uri":"lava%20rough.png"
		},
		{
			"mimeType":"image/png",
			"name":"ship emit",
			"uri":"ship%20emit.png"
		},
		{
			"mimeType":"image/png",
			"name":"normal ship",
			"uri":"normal%20ship.png"
		}
	],
	"accessors":[
		{
			"bufferView":0,
			"componentType":5126,
			"count":567,
			"max":[
				0.9701427817344666,
				1.0167236328125,
				1.0058958530426025
			],
			"min":[
				-1.1900043487548828,
				-0.9997960329055786,
				-0.9605169892311096
			],
			"type":"VEC3"
		},
		{
			"bufferView":1,
			"componentType":5126,
			"count":567,
			"type":"VEC3"
		},
		{
			"bufferView":2,
			"componentType":5126,
			"count":567,
			"type":"VEC2"
		},
		{
			"bufferView":3,
			"componentType":5123,
			"count":2880,
			"type":"SCALAR"
		},
		{
			"bufferView":4,
			"componentType":5126,
			"count":2024,
			"max":[
				1.1639604568481445,
				4.992271423339844,
				1.0583469867706299
			],
			"min":[
				-1.125304937362671,
				-4.972543239593506,
				-1.0757426023483276
			],
			"type":"VEC3"
		},
		{
			"bufferView":5,
			"componentType":5126,
			"count":2024,
			"type":"VEC3"
		},
		{
			"bufferView":6,
			"componentType":5126,
			"count":2024,
			"type":"VEC2"
		},
		{
			"bufferView":7,
			"componentType":5123,
			"count":9600,
			"type":"SCALAR"
		},
		{
			"bufferView":8,
			"componentType":5126,
			"count":250,
			"max":[
				10.416666666666666
			],
			"min":[
				0.041666666666666664
			],
			"type":"SCALAR"
		},
		{
			"bufferView":9,
			"componentType":5126,
			"count":250,
			"type":"VEC3"
		},
		{
			"bufferView":10,
			"componentType":5126,
			"count":250,
			"type":"VEC4"
		},
		{
			"bufferView":11,
			"componentType":5126,
			"count":2,
			"max":[
				10.416666666666666
			],
			"min":[
				0.041666666666666664
			],
			"type":"SCALAR"
		},
		{
			"bufferView":12,
			"componentType":5126,
			"count":2,
			"type":"VEC3"
		},
		{
			"bufferView":13,
			"componentType":5126,
			"count":2,
			"type":"VEC3"
		},
		{
			"bufferView":14,
			"componentType":5126,
			"count":250,
			"type":"VEC4"
		},
		{
			"bufferView":15,
			"componentType":5126,
			"count":250,
			"type":"VEC3"
		}
	],
	"bufferViews":[
		{
			"buffer":0,
			"byteLength":6804,
			"byteOffset":0,
			"target":34962
		},
		{
			"buffer":0,
			"byteLength":6804,
			"byteOffset":6804,
			"target":34962
		},
		{
			"buffer":0,
			"byteLength":4536,
			"byteOffset":13608,
			"target":34962
		},
		{
			"buffer":0,
			"byteLength":5760,
			"byteOffset":18144,
			"target":34963
		},
		{
			"buffer":0,
			"byteLength":24288,
			"byteOffset":23904,
			"target":34962
		},
		{
			"buffer":0,
			"byteLength":24288,
			"byteOffset":48192,
			"target":34962
		},
		{
			"buffer":0,
			"byteLength":16192,
			"byteOffset":72480,
			"target":34962
		},
		{
			"buffer":0,
			"byteLength":19200,
			"byteOffset":88672,
			"target":34963
		},
		{
			"buffer":0,
			"byteLength":1000,
			"byteOffset":107872
		},
		{
			"buffer":0,
			"byteLength":3000,
			"byteOffset":108872
		},
		{
			"buffer":0,
			"byteLength":4000,
			"byteOffset":111872
		},
		{
			"buffer":0,
			"byteLength":8,
			"byteOffset":115872
		},
		{
			"buffer":0,
			"byteLength":24,
			"byteOffset":115880
		},
		{
			"buffer":0,
			"byteLength":24,
			"byteOffset":115904
		},
		{
			"buffer":0,
			"byteLength":4000,
			"byteOffset":115928
		},
		{
			"buffer":0,
			"byteLength":3000,
			"byteOffset":119928
		}
	],
	"samplers":[
		{
			"magFilter":9729,
			"minFilter":9987
		}
	],
	"buffers":[
		{
			"byteLength":122928,
			"uri":"ufo.bin"
		}
	]
}
